<?xml version="1.0" standalone="yes"?><svg xmlns="http://www.w3.org/2000/svg" viewBox="0 0 576 512" style="zoom: 1;"><path d="M528,0 H96 C72.15,0 52.800,19.35 52.800,43.2 v288 c0,23.85 19.35,43.2 43.2,43.2 h172.8 l-14.4,44 h-64.8 c-11.97,0 -21.6,9.63 -21.6,21.6 s9.63,21.6 21.6,21.6 h244.8 c11.97,0 21.599998,-9.629999 21.599998,-21.599998 s-9.63,-21.6 -21.6,-21.6 h-64.8 l-14.4,-43.199997 h172.799988 c23.849998,0 43.199997,-19.35 43.199997,-43.199997 V43.199997 c0,-23.849998 -19.35,-43.199997 -43.199997,-43.199997 m-14.4,316.8 H110.4 V57.6 h403.2 v259.2 "></path></svg>